# xmcd
#
# Track frame offsets:
#	150
#	24487
#	43962
#	60831
#	83665
#	103958
#	127074
#	144097
#	166277
#	188952
#
# Disc length: 2708 seconds
#
# Revision: 2
# Processed by: cddbd v1.5.2PL0 Copyright (c) Steve Scherf et al.
# Submitted via: EasyCDDAExtractor 2011.3.0.0
#
DISCID=820a920a
DTITLE=Streetlife-Music - Die schönsten Tiergeschichten
DYEAR=2001
DGENRE=Vocal
TTITLE0=Die Entenmutter
TTITLE1=Hinz oder Kunz
TTITLE2=Wie Hund und Katz
TTITLE3=Bruder Stachelpelz
TTITLE4=Hilfe, der Weihnachtsmann
TTITLE5=Das tut weh
TTITLE6=So eine große Maus
TTITLE7=Eine seltsame Maus
TTITLE8=Rodeo
TTITLE9=Verflixter Steigbügel
EXTD=
EXTT0=
EXTT1=
EXTT2=
EXTT3=
EXTT4=
EXTT5=
EXTT6=
EXTT7=
EXTT8=
EXTT9=
PLAYORDER=
